# Blender v2.78 (sub 0) OBJ File: 'mask_end1.blend'
# www.blender.org
mtllib cat_mesh.mtl
o cat_mesh_for_android_test.002
v 0.131619 0.269080 -0.041921
v 0.224234 0.200342 -0.040873
v 0.128511 0.257651 -0.042392
v 0.221396 0.189841 -0.041300
v 0.314795 0.170708 -0.048321
v 0.312132 0.161482 -0.048688
v 0.431999 0.165820 -0.033136
v 0.431670 0.160412 -0.033267
v 0.478866 0.168285 0.006653
v 0.127264 0.308372 -0.026851
v 0.248682 0.287824 -0.028606
v 0.126365 0.296452 -0.027688
v 0.247869 0.276731 -0.029388
v 0.337263 0.290361 -0.037903
v 0.336307 0.280735 -0.038554
v 0.474924 0.319942 -0.037761
v 0.475080 0.316650 -0.037897
v 0.575753 0.363819 -0.018588
v 0.082858 0.358383 -0.023380
v 0.196791 0.354840 -0.053643
v 0.083112 0.346373 -0.023474
v 0.197335 0.343907 -0.053840
v 0.261482 0.362570 -0.079074
v 0.262507 0.353247 -0.079397
v 0.334829 0.397734 -0.087295
v 0.336491 0.393149 -0.087731
v 0.378103 0.423222 -0.061189
v -0.159938 0.269080 -0.041921
v -0.252553 0.200342 -0.040873
v -0.156830 0.257651 -0.042392
v -0.249715 0.189841 -0.041300
v -0.343114 0.170708 -0.048321
v -0.340451 0.161482 -0.048688
v -0.460319 0.165820 -0.033136
v -0.459989 0.160412 -0.033267
v -0.507186 0.168285 0.006653
v -0.155583 0.308372 -0.026851
v -0.277001 0.287824 -0.028606
v -0.154684 0.296452 -0.027688
v -0.276188 0.276731 -0.029388
v -0.365582 0.290361 -0.037903
v -0.364626 0.280735 -0.038554
v -0.503243 0.319942 -0.037761
v -0.503399 0.316650 -0.037897
v -0.604072 0.363819 -0.018588
v -0.111177 0.358384 -0.023380
v -0.225110 0.354840 -0.053643
v -0.111431 0.346373 -0.023474
v -0.225654 0.343907 -0.053840
v -0.289801 0.362570 -0.079074
v -0.290826 0.353247 -0.079397
v -0.363148 0.397734 -0.087295
v -0.364810 0.393149 -0.087731
v -0.406422 0.423222 -0.061189
v -0.193634 -0.543763 -0.116209
v -0.424291 -0.350500 -0.037121
v -0.521711 -0.168509 0.080911
v -0.644818 -1.180416 -0.121547
v -1.042191 -0.854377 0.040716
v -1.330582 -0.718074 0.473416
v -0.733338 -0.602657 0.010291
v -0.630481 -0.518732 0.016512
v -0.322537 -0.758928 -0.134506
v -0.403078 -0.864305 -0.136476
v -0.950566 -0.503686 0.400276
v -0.818400 -0.407797 0.315562
v 0.177888 -0.549408 -0.114817
v 0.413534 -0.363550 -0.032747
v 0.515211 -0.184839 0.086699
v 0.608987 -1.199851 -0.115925
v 1.014436 -0.886596 0.051462
v 1.301880 -0.759907 0.487700
v 0.713976 -0.625305 0.017851
v 0.613727 -0.538213 0.023010
v 0.300209 -0.768476 -0.131957
v 0.377434 -0.876318 -0.133159
v 0.929628 -0.533652 0.410491
v 0.801521 -0.433573 0.324399
vt 0.6299 0.3914
vt 0.5741 0.3655
vt 0.6282 0.3961
vt 0.6832 0.4048
vt 0.7499 0.4092
vt 0.7501 0.4068
vt 0.7724 0.4051
vt 0.6439 0.3520
vt 0.5725 0.3481
vt 0.6434 0.3570
vt 0.6960 0.3551
vt 0.6965 0.3507
vt 0.7777 0.3388
vt 0.7776 0.3373
vt 0.8345 0.3178
vt 0.6153 0.3210
vt 0.5473 0.3256
vt 0.6156 0.3260
vt 0.6562 0.3210
vt 0.6556 0.3167
vt 0.7018 0.3022
vt 0.7008 0.3000
vt 0.7243 0.2892
vt 0.3510 0.3914
vt 0.4067 0.3655
vt 0.4048 0.3603
vt 0.2976 0.4048
vt 0.3527 0.3961
vt 0.2311 0.4092
vt 0.2992 0.4090
vt 0.2309 0.4068
vt 0.2090 0.4051
vt 0.3370 0.3520
vt 0.4084 0.3481
vt 0.4079 0.3427
vt 0.2849 0.3551
vt 0.3375 0.3570
vt 0.2843 0.3507
vt 0.2031 0.3388
vt 0.2032 0.3373
vt 0.1464 0.3178
vt 0.3653 0.3210
vt 0.4336 0.3256
vt 0.4338 0.3202
vt 0.3242 0.3210
vt 0.3650 0.3260
vt 0.3248 0.3167
vt 0.2785 0.3022
vt 0.2795 0.3000
vt 0.2562 0.2892
vt 0.1702 0.7736
vt 0.1959 0.5668
vt 0.2607 0.6763
vt 0.3609 0.9352
vt 0.4173 0.7976
vt 0.1016 0.6906
vt 0.1140 0.8344
vt 0.0500 0.7432
vt -0.0551 1.0100
vt 0.3174 1.0054
vt 0.1451 1.2200
vt 0.1959 0.5668
vt 0.1702 0.7736
vt 0.2607 0.6763
vt 0.3609 0.9352
vt 0.4173 0.7976
vt 0.1016 0.6906
vt 0.1140 0.8344
vt -0.0551 1.0100
vt 0.0500 0.7432
vt -0.1006 0.8707
vt 0.3174 1.0054
vt 0.1451 1.2200
vt 0.5760 0.3603
vt 0.6816 0.4090
vt 0.5731 0.3427
vt 0.5472 0.3202
vt -0.1006 0.8707
vn -0.0345 -0.0312 0.9989
vn 0.0631 -0.0575 0.9963
vn -0.1291 -0.0162 0.9915
vn -0.6477 0.0210 0.7616
vn 0.0025 -0.0705 0.9975
vn 0.1063 -0.0775 0.9913
vn 0.0078 -0.0410 0.9991
vn -0.1661 -0.0486 0.9849
vn 0.2568 -0.0047 0.9664
vn 0.3650 0.0079 0.9310
vn 0.1330 -0.0459 0.9901
vn -0.4001 -0.2295 0.8873
vn 0.0348 -0.0317 0.9989
vn -0.0631 -0.0575 0.9963
vn 0.1280 -0.0026 0.9918
vn 0.6477 0.0210 0.7616
vn -0.0025 -0.0703 0.9975
vn -0.1063 -0.0777 0.9913
vn -0.0131 -0.0687 0.9976
vn 0.1661 -0.0486 0.9849
vn -0.2567 -0.0021 0.9665
vn -0.3649 0.0014 0.9310
vn -0.1230 -0.0209 0.9922
vn 0.4001 -0.2295 0.8873
vn -0.4542 0.3653 -0.8125
vn -0.6172 0.3236 -0.7172
vn -0.3748 0.2227 -0.9000
vn -0.2673 0.1986 -0.9429
vn -0.1748 0.1869 -0.9667
vn -0.6903 0.4752 -0.5456
vn -0.4148 0.4554 -0.7878
vn -0.5825 0.6234 -0.5217
vn -0.4437 0.4966 -0.7460
vn -0.2718 0.2072 -0.9398
vn -0.2640 0.1760 -0.9483
vn 0.6353 0.3050 -0.7095
vn 0.4749 0.3519 -0.8066
vn 0.3920 0.2119 -0.8952
vn 0.2844 0.1913 -0.9394
vn 0.1918 0.1826 -0.9643
vn 0.7111 0.4540 -0.5368
vn 0.4380 0.4431 -0.7822
vn 0.4677 0.4834 -0.7400
vn 0.6077 0.6055 -0.5139
vn 0.5171 0.6683 -0.5348
vn 0.2891 0.1997 -0.9362
vn 0.2804 0.1688 -0.9449
vn -0.0348 -0.0317 0.9989
vn 0.0630 -0.0579 0.9963
vn -0.1280 -0.0026 0.9918
vn 0.0025 -0.0703 0.9975
vn 0.1063 -0.0777 0.9913
vn 0.0131 -0.0687 0.9976
vn 0.2567 -0.0021 0.9665
vn 0.3649 0.0014 0.9310
vn 0.1230 -0.0209 0.9922
vn 0.0345 -0.0312 0.9989
vn -0.0630 -0.0579 0.9963
vn 0.1291 -0.0162 0.9915
vn -0.0025 -0.0705 0.9975
vn -0.1063 -0.0775 0.9913
vn -0.0078 -0.0410 0.9991
vn -0.2568 -0.0047 0.9664
vn -0.3650 0.0079 0.9310
vn -0.1330 -0.0459 0.9901
vn -0.4897 0.6833 -0.5416
usemtl Material.004
s off
f 2/1/1 3/2/1 4/3/1
f 4/3/2 5/4/2 2/1/2
f 5/4/3 8/5/3 7/6/3
f 7/6/4 8/5/4 9/7/4
f 11/8/5 12/9/5 13/10/5
f 11/8/6 15/11/6 14/12/6
f 14/12/7 17/13/7 16/14/7
f 16/14/8 17/13/8 18/15/8
f 20/16/9 21/17/9 22/18/9
f 20/16/10 24/19/10 23/20/10
f 23/20/11 26/21/11 25/22/11
f 25/22/12 26/21/12 27/23/12
f 29/24/13 30/25/13 28/26/13
f 32/27/14 31/28/14 29/24/14
f 32/27/15 35/29/15 33/30/15
f 34/31/16 36/32/16 35/29/16
f 38/33/17 39/34/17 37/35/17
f 38/33/18 42/36/18 40/37/18
f 41/38/19 44/39/19 42/36/19
f 43/40/20 45/41/20 44/39/20
f 47/42/21 48/43/21 46/44/21
f 47/42/22 51/45/22 49/46/22
f 50/47/23 53/48/23 51/45/23
f 52/49/24 54/50/24 53/48/24
usemtl None.001
s 1
f 62/51/25 57/52/26 56/53/27
f 63/54/28 56/53/27 55/55/29
f 66/56/30 61/57/31 65/58/32
f 59/59/33 65/58/32 61/57/31
f 62/51/25 64/60/34 61/57/31
f 58/61/35 61/57/31 64/60/34
f 69/62/36 74/63/37 68/64/38
f 68/64/38 75/65/39 67/66/40
f 78/67/41 73/68/42 74/63/37
f 71/69/43 77/70/44 72/71/45
f 74/63/37 76/72/46 75/65/39
f 73/68/42 70/73/47 76/72/46
usemtl Material.004
s off
f 2/1/48 1/74/48 3/2/48
f 4/3/49 6/75/49 5/4/49
f 5/4/50 6/75/50 8/5/50
f 11/8/51 10/76/51 12/9/51
f 11/8/52 13/10/52 15/11/52
f 14/12/53 15/11/53 17/13/53
f 20/16/54 19/77/54 21/17/54
f 20/16/55 22/18/55 24/19/55
f 23/20/56 24/19/56 26/21/56
f 29/24/57 31/28/57 30/25/57
f 32/27/58 33/30/58 31/28/58
f 32/27/59 34/31/59 35/29/59
f 38/33/60 40/37/60 39/34/60
f 38/33/61 41/38/61 42/36/61
f 41/38/62 43/40/62 44/39/62
f 47/42/63 49/46/63 48/43/63
f 47/42/64 50/47/64 51/45/64
f 50/47/65 52/49/65 53/48/65
usemtl None.001
s 1
f 62/51/25 66/56/30 57/52/26
f 63/54/28 62/51/25 56/53/27
f 66/56/30 62/51/25 61/57/31
f 59/59/33 60/78/66 65/58/32
f 62/51/25 63/54/28 64/60/34
f 58/61/35 59/59/33 61/57/31
f 69/62/36 78/67/41 74/63/37
f 68/64/38 74/63/37 75/65/39
f 78/67/41 77/70/44 73/68/42
f 71/69/43 73/68/42 77/70/44
f 74/63/37 73/68/42 76/72/46
f 73/68/42 71/69/43 70/73/47
