# Blender v2.78 (sub 0) OBJ File: 'face_OSN.blend'
# www.blender.org
mtllib face_OSN.mtl
o mean3DShape
v 0.001690 -1.060999 0.371000
v 0.175274 -0.799722 0.024000
v 0.000858 -0.538999 -0.085000
v 0.000443 -0.278000 -0.107000
v 0.000339 -0.213000 -0.085000
v -0.000354 0.222000 -0.210000
v -0.000422 0.265000 -0.124000
v -0.000664 0.416999 -0.142000
v -0.000838 0.525999 -0.150000
v -0.000941 0.590999 -0.107000
v -0.001357 0.851999 -0.063000
v 0.435996 -0.625306 0.111000
v 0.610858 -0.538028 0.328000
v 0.522442 -0.277168 0.111000
v 0.391595 -0.373377 -0.030000
v 0.130443 -0.277793 -0.107000
v 0.391512 -0.321377 -0.030000
v 0.304358 -0.224516 0.002000
v 0.470235 -0.147251 0.111000
v 0.304325 -0.203516 -0.000000
v 0.304194 -0.121516 -0.000000
v 0.130236 -0.147793 -0.000000
v 0.304165 -0.103516 -0.000000
v 0.108750 0.157173 -0.037000
v 0.173611 0.244277 -0.037000
v 0.386840 0.100616 0.045000
v 0.549601 0.250876 0.328000
v 0.609235 -0.147030 0.328000
v 0.469044 0.600748 0.328000
v 0.245265 0.461391 0.000000
v 0.172711 0.809276 0.000000
v 0.042369 0.396068 -0.150000
v -0.172726 -0.800276 0.024000
v 0.000858 -0.538999 -0.085000
v 0.000443 -0.278000 -0.107000
v 0.000339 -0.213000 -0.085000
v -0.000354 0.222000 -0.210000
v -0.000422 0.265000 -0.124000
v -0.000734 0.460999 -0.124000
v -0.000838 0.525999 -0.150000
v -0.000941 0.590999 -0.107000
v -0.001357 0.851999 -0.063000
v -0.434002 -0.626692 0.111000
v -0.609141 -0.539971 0.328000
v -0.521557 -0.278831 0.111000
v -0.390404 -0.374622 -0.030000
v -0.129557 -0.278207 -0.107000
v -0.390487 -0.322622 -0.030000
v -0.303641 -0.225484 0.002000
v -0.469764 -0.148748 0.111000
v -0.303675 -0.204484 -0.000000
v -0.303805 -0.122484 -0.000000
v -0.129764 -0.148207 -0.000000
v -0.303834 -0.104484 -0.000000
v -0.109250 0.156826 -0.037000
v -0.174388 0.243723 -0.037000
v -0.387159 0.099384 0.045000
v -0.550397 0.249124 0.328000
v -0.608764 -0.148970 0.328000
v -0.470955 0.599251 0.328000
v -0.246734 0.460608 0.000000
v -0.175288 0.808722 0.000000
v -0.043631 0.395931 -0.150000
v 0.348318 -0.199446 0.030000
v 0.348183 -0.114446 0.030000
v -0.347681 -0.200554 0.030000
v -0.347816 -0.115554 0.030000
v 0.265318 -0.199578 0.030000
v 0.265183 -0.114578 0.030000
v -0.264681 -0.200422 0.030000
v -0.264817 -0.115422 0.030000
v 0.079650 0.220127 -0.150000
v -0.080350 0.219872 -0.150000
v 0.022339 -0.212965 -0.063000
v -0.021661 -0.213035 -0.063000
v 0.122347 0.410195 -0.063000
v -0.123653 0.409804 -0.063000
v 0.099266 0.461159 -0.050000
v -0.100734 0.460840 -0.050000
v 0.099266 0.461159 -0.050000
v -0.100734 0.460840 -0.050000
v 0.122191 0.508195 -0.063000
v -0.123809 0.507803 -0.063000
v -0.000734 0.460999 -0.124000
v 0.199266 0.461318 0.024000
v -0.200734 0.460681 0.024000
v 0.356265 0.461568 0.050000
v -0.357734 0.460431 0.050000
v 0.065045 -0.027896 -0.050000
v -0.064955 -0.028103 -0.050000
v 0.000108 -0.068000 -0.100000
v 0.387320 -0.200383 0.056000
v -0.386679 -0.201616 0.056000
v 0.387296 -0.185383 0.056000
v -0.386703 -0.186616 0.056000
v 0.387200 -0.125383 0.056000
v -0.386799 -0.126616 0.056000
v 0.387186 -0.116384 0.067000
v -0.386813 -0.117616 0.067000
v 0.217320 -0.200654 0.013000
v -0.216680 -0.201345 0.013000
v 0.217296 -0.185654 0.013000
v -0.216703 -0.186345 0.013000
v 0.217200 -0.125654 0.013000
v -0.216799 -0.126345 0.013000
v 0.217186 -0.116654 0.024000
v -0.216813 -0.117345 0.024000
v 0.119578 0.265191 -0.100000
v -0.120422 0.264809 -0.100000
vt 0.7494 0.7868
vt 0.5857 0.8858
vt 0.4981 0.7684
vt 0.4111 0.8861
vt 0.2472 0.7875
vt 0.8198 0.7234
vt 0.7499 0.6189
vt 0.6992 0.6763
vt 0.5673 0.6319
vt 0.4979 0.6320
vt 0.4285 0.6321
vt 0.2969 0.6769
vt 0.2463 0.6197
vt 0.1771 0.7242
vt 0.8190 0.5512
vt 0.7247 0.5562
vt 0.6991 0.6495
vt 0.6520 0.5982
vt 0.5638 0.5594
vt 0.5094 0.5952
vt 0.4864 0.5953
vt 0.4320 0.5596
vt 0.3439 0.5987
vt 0.2969 0.6502
vt 0.2713 0.5569
vt 0.1773 0.5521
vt 0.7875 0.3760
vt 0.6900 0.4348
vt 0.5873 0.3581
vt 0.6521 0.5369
vt 0.5539 0.4030
vt 0.4414 0.4032
vt 0.3437 0.5374
vt 0.4077 0.3584
vt 0.3055 0.4354
vt 0.2080 0.3768
vt 0.5613 0.3426
vt 0.5207 0.2673
vt 0.5410 0.3633
vt 0.4538 0.3634
vt 0.4336 0.3428
vt 0.4738 0.2674
vt 0.4974 0.3409
vt 0.4973 0.2569
vt 0.5854 0.0739
vt 0.4972 0.1682
vt 0.4970 0.0388
vt 0.4089 0.0742
vt 0.4973 0.3580
vt 0.5616 0.2696
vt 0.5493 0.2446
vt 0.4972 0.2354
vt 0.4331 0.2698
vt 0.4454 0.2448
vt 0.3971 0.2535
vt 0.3726 0.2508
vt 0.5978 0.2532
vt 0.6222 0.2504
vt 0.5493 0.2446
vt 0.5616 0.2184
vt 0.4971 0.1965
vt 0.4972 0.2354
vt 0.4454 0.2448
vt 0.4330 0.2186
vt 0.7451 0.2220
vt 0.6744 0.2560
vt 0.3205 0.2565
vt 0.2499 0.2227
vt 0.5315 0.4985
vt 0.4640 0.4987
vt 0.4977 0.5198
vt 0.6893 0.5839
vt 0.6893 0.5765
vt 0.6883 0.5422
vt 0.6893 0.5468
vt 0.6521 0.5877
vt 0.6521 0.5461
vt 0.6074 0.5857
vt 0.6073 0.5781
vt 0.6067 0.5431
vt 0.6073 0.5479
vt 0.3885 0.5860
vt 0.3885 0.5785
vt 0.3890 0.5435
vt 0.3885 0.5482
vt 0.3437 0.5881
vt 0.3437 0.5466
vt 0.3067 0.5845
vt 0.3066 0.5771
vt 0.3066 0.5474
vt 0.3075 0.5428
vt 0.3653 0.5424
vt 0.3654 0.5849
vt 0.3238 0.5424
vt 0.3239 0.5850
vt 0.6720 0.5419
vt 0.6721 0.5844
vt 0.6305 0.5420
vt 0.6305 0.5845
vn 0.3872 -0.1230 -0.9138
vn 0.0006 -0.3854 -0.9228
vn -0.3868 -0.1242 -0.9138
vn 0.8006 -0.1988 -0.5652
vn 0.7816 -0.1941 -0.5929
vn 0.3003 -0.4250 -0.8539
vn 0.2142 -0.1870 -0.9587
vn 0.0001 -0.0840 -0.9965
vn -0.2136 -0.1877 -0.9587
vn -0.2990 -0.4259 -0.8539
vn -0.7809 -0.1966 -0.5929
vn -0.8000 -0.2014 -0.5652
vn 0.9277 0.0039 -0.3734
vn 0.7975 0.3205 -0.5112
vn 0.4645 0.6251 -0.6273
vn 0.7326 0.0012 -0.6807
vn 0.2830 0.0005 -0.9591
vn 0.3196 0.5439 -0.7759
vn 0.0668 0.6341 -0.7703
vn -0.0009 0.5606 -0.8281
vn -0.0688 0.6339 -0.7703
vn -0.3214 0.5429 -0.7759
vn -0.2830 -0.0005 -0.9591
vn -0.7326 -0.0012 -0.6807
vn -0.4664 0.6237 -0.6273
vn -0.7985 0.3179 -0.5112
vn -0.9277 0.0009 -0.3734
vn 0.8301 0.1244 -0.5435
vn 0.8339 0.1383 -0.5343
vn 0.0943 -0.0702 -0.9931
vn -0.0941 -0.0705 -0.9931
vn -0.8343 0.1356 -0.5343
vn -0.8305 0.1218 -0.5435
vn 0.7750 0.2328 -0.5875
vn 0.7645 0.0366 -0.6435
vn 0.7059 -0.5257 -0.4747
vn -0.7043 -0.5279 -0.4747
vn -0.7646 0.0342 -0.6435
vn -0.7758 0.2303 -0.5875
vn -0.2352 -0.1147 -0.9652
vn 0.2356 -0.1139 -0.9652
vn 0.3696 0.1550 -0.9162
vn -0.3701 0.1539 -0.9162
vn -0.3382 0.8416 -0.4211
vn 0.3355 0.8427 -0.4211
vn 0.3266 0.8384 -0.4364
vn 0.5065 0.4213 -0.7523
vn 0.5646 0.3133 -0.7636
vn -0.3293 0.8373 -0.4364
vn -0.5078 0.4197 -0.7523
vn -0.5656 0.3115 -0.7636
vn -0.5384 0.4268 -0.7266
vn 0.1892 0.9114 -0.3654
vn 0.5370 0.4286 -0.7266
vn -0.1921 0.9108 -0.3654
vn 0.7218 0.1161 -0.6823
vn 0.4557 0.0013 -0.8901
vn -0.7221 0.1138 -0.6823
vn -0.4557 -0.0001 -0.8901
vn 0.5299 -0.4559 -0.7151
vn -0.1765 -0.9233 -0.3411
vn 0.4745 -0.4417 -0.7614
vn 0.5668 -0.3052 -0.7653
vn -0.5658 -0.3070 -0.7653
vn -0.4731 -0.4432 -0.7614
vn -0.5284 -0.4576 -0.7151
vn 0.1794 -0.9227 -0.3411
vn 0.5563 0.4591 -0.6927
vn -0.5577 0.4573 -0.6927
vn 0.4835 0.1008 -0.8695
vn 0.4055 0.1215 -0.9060
vn -0.4838 0.0993 -0.8695
vn -0.4059 0.1202 -0.9060
vn 0.3859 0.0468 -0.9214
vn 0.7949 0.3482 -0.4968
vn 0.4091 0.0853 -0.9085
vn 0.8689 0.2001 -0.4527
vn 0.4106 0.0198 -0.9116
vn 0.3851 0.0454 -0.9218
vn 0.8455 0.0789 -0.5282
vn -0.3860 0.0456 -0.9214
vn -0.7960 0.3457 -0.4968
vn -0.4094 0.0840 -0.9085
vn -0.8696 0.1973 -0.4527
vn -0.4107 0.0185 -0.9116
vn -0.3852 0.0442 -0.9218
vn -0.8457 0.0762 -0.5282
vn 0.5315 -0.0633 -0.8447
vn 0.5287 -0.0654 -0.8463
vn 0.9189 -0.1928 -0.3441
vn -0.5313 -0.0650 -0.8447
vn -0.9183 -0.1958 -0.3441
vn -0.5285 -0.0671 -0.8463
vn 0.6435 -0.0952 -0.7595
vn 0.6920 -0.3046 -0.6544
vn 0.5697 -0.2907 -0.7687
vn -0.5688 -0.2925 -0.7687
vn -0.6911 -0.3068 -0.6544
vn -0.6432 -0.0972 -0.7595
vn 0.0004 -0.2472 -0.9690
vn 0.4586 0.1843 -0.8693
vn 0.5524 0.0009 -0.8336
vn 0.5288 0.6572 -0.5370
vn 0.4400 -0.0899 -0.8935
vn 0.4797 0.2396 -0.8441
vn 0.5596 -0.0777 -0.8251
vn 0.5593 0.0009 -0.8290
vn 0.6187 -0.0783 -0.7817
vn 0.6281 0.0010 -0.7781
vn 0.4202 0.7026 -0.5743
vn 0.4481 0.5685 -0.6899
vn 0.1478 0.0002 -0.9890
vn -0.1018 0.7699 -0.6300
vn 0.2962 -0.0944 -0.9505
vn 0.1386 0.7844 -0.6046
vn -0.1501 -0.0940 -0.9842
vn -0.1478 -0.0002 -0.9890
vn -0.1303 0.7673 -0.6279
vn -0.2659 -0.0004 -0.9640
vn -0.2131 -0.2921 -0.9323
vn -0.4499 0.5671 -0.6899
vn 0.0994 0.7702 -0.6300
vn -0.2959 -0.0954 -0.9505
vn -0.1411 0.7839 -0.6046
vn 0.1504 -0.0935 -0.9842
vn 0.1279 0.7677 -0.6279
vn 0.2659 0.0004 -0.9640
vn 0.2141 -0.2914 -0.9323
vn -0.4592 0.1828 -0.8693
vn -0.5524 -0.0009 -0.8336
vn -0.5309 0.6555 -0.5370
vn -0.4397 -0.0913 -0.8935
vn -0.4805 0.2381 -0.8441
vn -0.5594 -0.0795 -0.8251
vn -0.5593 -0.0009 -0.8290
vn -0.4224 0.7012 -0.5743
vn -0.6281 -0.0010 -0.7781
vn -0.6185 -0.0802 -0.7817
vn 0.1436 0.6754 -0.7234
vn 0.1903 -0.2504 -0.9493
vn -0.1457 0.6749 -0.7234
vn -0.1895 -0.2510 -0.9493
vn 0.0000 0.0000 -1.0000
vn -0.5531 -0.0009 -0.8331
vn -0.2169 -0.0003 -0.9762
vn 0.2169 0.0003 -0.9762
vn 0.5531 0.0009 -0.8331
vn -0.5626 -0.0344 -0.8260
vn -0.5655 -0.0474 -0.8234
vn -0.0016 0.9912 -0.1322
vn 0.2246 -0.9609 -0.1618
vn -0.4060 0.7454 -0.5287
vn -0.2577 -0.9598 -0.1111
vn 0.0924 0.9358 -0.3403
vn -0.0016 0.9738 -0.2272
vn -0.5601 0.0275 -0.8280
vn -0.5039 -0.1995 -0.8404
vn 0.5628 -0.0327 -0.8260
vn 0.5657 -0.0456 -0.8234
vn -0.2215 -0.9616 -0.1618
vn 0.4037 0.7466 -0.5287
vn 0.5046 -0.1978 -0.8404
vn 0.5600 0.0293 -0.8280
vn -0.0954 0.9355 -0.3403
vn 0.2607 -0.9590 -0.1111
usemtl Material.003
s off
f 12/1/1 2/2/1 3/3/1
f 3/3/2 2/2/2 33/4/2
f 43/5/3 3/3/3 33/4/3
f 13/6/4 12/1/4 14/7/4
f 14/7/5 12/1/5 15/8/5
f 12/1/6 3/3/6 15/8/6
f 15/8/7 3/3/7 16/9/7
f 16/9/8 3/3/8 4/10/8
f 4/10/8 3/3/8 47/11/8
f 47/11/9 3/3/9 46/12/9
f 46/12/10 3/3/10 43/5/10
f 46/12/11 43/5/11 45/13/11
f 45/13/12 43/5/12 44/14/12
f 28/15/13 13/6/13 14/7/13
f 28/15/14 14/7/14 19/16/14
f 14/7/15 17/17/15 18/18/15
f 15/8/16 17/17/16 14/7/16
f 17/17/17 15/8/17 16/9/17
f 17/17/18 16/9/18 18/18/18
f 22/19/19 16/9/19 74/20/19
f 16/9/20 4/10/20 74/20/20
f 75/21/20 4/10/20 47/11/20
f 53/22/21 75/21/21 47/11/21
f 49/23/22 47/11/22 48/24/22
f 47/11/23 46/12/23 48/24/23
f 46/12/24 45/13/24 48/24/24
f 48/24/25 45/13/25 49/23/25
f 50/25/26 45/13/26 59/26/26
f 45/13/27 44/14/27 59/26/27
f 27/27/28 28/15/28 26/28/28
f 28/15/29 19/16/29 26/28/29
f 25/29/30 23/30/30 24/31/30
f 55/32/31 54/33/31 56/34/31
f 57/35/32 50/25/32 59/26/32
f 57/35/33 59/26/33 58/36/33
f 25/29/34 108/37/34 32/38/34
f 25/29/35 72/39/35 108/37/35
f 24/31/36 72/39/36 25/29/36
f 56/34/37 73/40/37 55/32/37
f 109/41/38 73/40/38 56/34/38
f 63/42/39 109/41/39 56/34/39
f 32/38/40 7/43/40 8/44/40
f 8/44/41 7/43/41 63/42/41
f 31/45/42 10/46/42 11/47/42
f 11/47/43 10/46/43 62/48/43
f 73/40/44 7/43/44 6/49/44
f 6/49/45 7/43/45 72/39/45
f 74/20/20 4/10/20 75/21/20
f 32/38/46 8/44/46 76/50/46
f 76/50/47 8/44/47 78/51/47
f 78/51/48 8/44/48 84/52/48
f 77/53/49 8/44/49 63/42/49
f 79/54/50 8/44/50 77/53/50
f 84/52/51 8/44/51 79/54/51
f 79/54/52 77/53/52 86/55/52
f 86/55/53 77/53/53 61/56/53
f 85/57/54 76/50/54 78/51/54
f 30/58/55 76/50/55 85/57/55
f 76/50/56 25/29/56 32/38/56
f 30/58/57 25/29/57 76/50/57
f 63/42/58 56/34/58 77/53/58
f 77/53/59 56/34/59 61/56/59
f 85/57/60 80/59/60 82/60/60
f 85/57/61 82/60/61 30/58/61
f 80/59/62 9/61/62 82/60/62
f 80/59/63 39/62/63 9/61/63
f 9/61/64 39/62/64 81/63/64
f 9/61/65 81/63/65 83/64/65
f 86/55/66 83/64/66 81/63/66
f 61/56/67 83/64/67 86/55/67
f 10/46/68 82/60/68 9/61/68
f 10/46/69 9/61/69 83/64/69
f 82/60/70 31/45/70 30/58/70
f 10/46/71 31/45/71 82/60/71
f 62/48/72 83/64/72 61/56/72
f 62/48/73 10/46/73 83/64/73
f 25/29/74 26/28/74 23/30/74
f 29/65/75 87/66/75 31/45/75
f 31/45/76 87/66/76 30/58/76
f 87/66/77 29/65/77 27/27/77
f 87/66/78 25/29/78 30/58/78
f 87/66/79 26/28/79 25/29/79
f 87/66/80 27/27/80 26/28/80
f 57/35/81 56/34/81 54/33/81
f 62/48/82 88/67/82 60/68/82
f 61/56/83 88/67/83 62/48/83
f 88/67/84 58/36/84 60/68/84
f 88/67/85 61/56/85 56/34/85
f 88/67/86 56/34/86 57/35/86
f 88/67/87 57/35/87 58/36/87
f 74/20/88 89/69/88 22/19/88
f 22/19/89 89/69/89 24/31/89
f 24/31/90 89/69/90 72/39/90
f 53/22/91 90/70/91 75/21/91
f 73/40/92 90/70/92 55/32/92
f 55/32/93 90/70/93 53/22/93
f 74/20/94 91/71/94 89/69/94
f 89/69/95 91/71/95 72/39/95
f 72/39/96 91/71/96 6/49/96
f 6/49/97 91/71/97 73/40/97
f 73/40/98 91/71/98 90/70/98
f 90/70/99 91/71/99 75/21/99
f 75/21/100 91/71/100 74/20/100
f 92/72/101 19/16/101 14/7/101
f 94/73/102 19/16/102 92/72/102
f 98/74/103 19/16/103 96/75/103
f 26/28/104 19/16/104 98/74/104
f 18/18/105 92/72/105 14/7/105
f 20/76/106 92/72/106 18/18/106
f 94/73/107 92/72/107 20/76/107
f 26/28/108 98/74/108 23/30/108
f 23/30/109 98/74/109 21/77/109
f 21/77/110 98/74/110 96/75/110
f 22/19/111 100/78/111 16/9/111
f 22/19/112 102/79/112 100/78/112
f 22/19/113 106/80/113 104/81/113
f 22/19/114 24/31/114 106/80/114
f 16/9/115 100/78/115 18/18/115
f 18/18/116 100/78/116 20/76/116
f 20/76/117 100/78/117 102/79/117
f 104/81/118 106/80/118 21/77/118
f 21/77/119 106/80/119 23/30/119
f 23/30/120 106/80/120 24/31/120
f 101/82/121 53/22/121 47/11/121
f 103/83/117 53/22/117 101/82/117
f 107/84/122 53/22/122 105/85/122
f 55/32/123 53/22/123 107/84/123
f 49/23/124 101/82/124 47/11/124
f 51/86/125 101/82/125 49/23/125
f 103/83/112 101/82/112 51/86/112
f 52/87/126 107/84/126 105/85/126
f 54/33/127 107/84/127 52/87/127
f 55/32/128 107/84/128 54/33/128
f 45/13/129 50/25/129 93/88/129
f 50/25/130 95/89/130 93/88/130
f 97/90/131 50/25/131 99/91/131
f 99/91/132 50/25/132 57/35/132
f 45/13/133 93/88/133 49/23/133
f 49/23/134 93/88/134 51/86/134
f 51/86/135 93/88/135 95/89/135
f 97/90/136 99/91/136 52/87/136
f 52/87/137 99/91/137 54/33/137
f 54/33/138 99/91/138 57/35/138
f 7/43/139 108/37/139 72/39/139
f 32/38/140 108/37/140 7/43/140
f 73/40/141 109/41/141 7/43/141
f 7/43/142 109/41/142 63/42/142
f 71/92/143 70/93/143 67/94/143
f 67/94/143 70/93/143 66/95/143
f 65/96/143 64/97/143 69/98/143
f 69/98/143 64/97/143 68/99/143
f 66/95/144 50/25/144 67/94/144
f 71/92/145 53/22/145 70/93/145
f 68/99/146 22/19/146 69/98/146
f 65/96/147 19/16/147 64/97/147
f 66/95/148 95/89/148 50/25/148
f 51/86/149 66/95/149 95/89/149
f 70/93/150 51/86/150 66/95/150
f 51/86/151 103/83/151 70/93/151
f 53/22/152 103/83/152 70/93/152
f 105/85/153 53/22/153 71/92/153
f 52/87/154 71/92/154 105/85/154
f 52/87/155 67/94/155 71/92/155
f 52/87/156 97/90/156 67/94/156
f 97/90/157 50/25/157 67/94/157
f 64/97/158 19/16/158 94/73/158
f 94/73/159 64/97/159 20/76/159
f 64/97/150 20/76/150 68/99/150
f 20/76/160 68/99/160 102/79/160
f 68/99/161 102/79/161 22/19/161
f 19/16/162 96/75/162 65/96/162
f 65/96/163 96/75/163 21/77/163
f 21/77/155 69/98/155 65/96/155
f 21/77/164 104/81/164 69/98/164
f 22/19/165 104/81/165 69/98/165
